<svg width="59" height="39" viewBox="0 0 59 39" fill="none" xmlns="http://www.w3.org/2000/svg">
<rect width="59" height="39" fill="#7869FF"/>
<path d="M13.868 27.848L13.952 27.608H18.188L18.092 27.848H13.868ZM18.404 24.776C18.484 24.48 18.516 24.264 18.5 24.128C18.492 23.984 18.424 23.888 18.296 23.84C18.168 23.784 17.968 23.752 17.696 23.744L17.756 23.504C17.972 23.512 18.252 23.52 18.596 23.528C18.94 23.536 19.284 23.54 19.628 23.54C20.02 23.54 20.392 23.536 20.744 23.528C21.096 23.52 21.384 23.512 21.608 23.504L21.548 23.744C21.276 23.752 21.064 23.784 20.912 23.84C20.76 23.888 20.64 23.984 20.552 24.128C20.472 24.264 20.392 24.48 20.312 24.776L18.728 30.728C18.656 31.016 18.624 31.232 18.632 31.376C18.64 31.52 18.708 31.616 18.836 31.664C18.964 31.712 19.164 31.744 19.436 31.76L19.388 32C19.172 31.984 18.888 31.976 18.536 31.976C18.184 31.968 17.812 31.964 17.42 31.964C17.076 31.964 16.728 31.968 16.376 31.976C16.032 31.976 15.752 31.984 15.536 32L15.584 31.76C15.856 31.744 16.068 31.712 16.22 31.664C16.372 31.616 16.492 31.52 16.58 31.376C16.668 31.232 16.748 31.016 16.82 30.728L18.404 24.776ZM13.688 30.728C13.616 31.016 13.584 31.232 13.592 31.376C13.6 31.52 13.668 31.616 13.796 31.664C13.924 31.712 14.124 31.744 14.396 31.76L14.348 32C14.124 31.984 13.84 31.976 13.496 31.976C13.16 31.968 12.816 31.964 12.464 31.964C12.064 31.964 11.692 31.968 11.348 31.976C11.004 31.976 10.724 31.984 10.508 32L10.568 31.76C10.832 31.744 11.036 31.712 11.18 31.664C11.332 31.616 11.452 31.52 11.54 31.376C11.628 31.232 11.708 31.016 11.78 30.728L13.364 24.776C13.444 24.48 13.476 24.264 13.46 24.128C13.444 23.984 13.372 23.888 13.244 23.84C13.124 23.784 12.928 23.752 12.656 23.744L12.716 23.504C12.916 23.512 13.192 23.52 13.544 23.528C13.896 23.536 14.272 23.54 14.672 23.54C15.024 23.54 15.364 23.536 15.692 23.528C16.028 23.52 16.32 23.512 16.568 23.504L16.508 23.744C16.236 23.752 16.024 23.784 15.872 23.84C15.72 23.888 15.6 23.984 15.512 24.128C15.432 24.264 15.352 24.48 15.272 24.776L13.688 30.728ZM22.8037 23.792C22.8197 23.448 22.9437 23.184 23.1757 23C23.4157 22.816 23.6997 22.724 24.0277 22.724C24.3237 22.724 24.5477 22.796 24.6997 22.94C24.8597 23.076 24.9317 23.268 24.9157 23.516C24.8997 23.828 24.7717 24.084 24.5317 24.284C24.2917 24.476 24.0037 24.572 23.6677 24.572C23.3877 24.572 23.1677 24.504 23.0077 24.368C22.8557 24.224 22.7877 24.032 22.8037 23.792ZM22.3477 26.816C22.4837 26.416 22.4397 26.216 22.2157 26.216C22.0717 26.216 21.9397 26.288 21.8197 26.432C21.6997 26.576 21.5757 26.82 21.4477 27.164L21.2077 27.776H20.9797L21.3157 26.864C21.4277 26.544 21.5677 26.296 21.7357 26.12C21.9117 25.944 22.1037 25.82 22.3117 25.748C22.5277 25.668 22.7517 25.628 22.9837 25.628C23.2637 25.628 23.4837 25.68 23.6437 25.784C23.8037 25.888 23.9117 26.024 23.9677 26.192C24.0237 26.352 24.0437 26.532 24.0277 26.732C24.0117 26.924 23.9717 27.116 23.9077 27.308L22.6477 30.98C22.5757 31.196 22.5557 31.352 22.5877 31.448C22.6277 31.536 22.7037 31.58 22.8157 31.58C22.9197 31.58 23.0317 31.52 23.1517 31.4C23.2797 31.28 23.4197 31.024 23.5717 30.632L23.7877 30.056H24.0157L23.7037 30.932C23.5917 31.26 23.4477 31.512 23.2717 31.688C23.0957 31.864 22.9037 31.988 22.6957 32.06C22.4957 32.132 22.2917 32.168 22.0837 32.168C21.7397 32.168 21.4757 32.092 21.2917 31.94C21.1157 31.788 21.0197 31.568 21.0037 31.28C20.9877 30.992 21.0437 30.652 21.1717 30.26L22.3477 26.816ZM26.4189 32H24.7269L26.1909 26.816C26.2469 26.6 26.2629 26.448 26.2389 26.36C26.2229 26.264 26.1629 26.216 26.0589 26.216C25.9149 26.216 25.7829 26.288 25.6629 26.432C25.5429 26.568 25.4149 26.812 25.2789 27.164L25.0509 27.776H24.8229L25.1469 26.864C25.2669 26.544 25.4109 26.296 25.5789 26.12C25.7469 25.944 25.9349 25.82 26.1429 25.748C26.3589 25.668 26.5789 25.628 26.8029 25.628C27.0589 25.628 27.2549 25.68 27.3909 25.784C27.5269 25.88 27.6189 26.012 27.6669 26.18C27.7149 26.348 27.7309 26.532 27.7149 26.732C27.7069 26.924 27.6789 27.116 27.6309 27.308L26.4189 32ZM29.4909 25.892C29.3309 25.892 29.1589 25.94 28.9749 26.036C28.7909 26.132 28.6029 26.304 28.4109 26.552C28.2189 26.8 28.0149 27.144 27.7989 27.584C27.5909 28.024 27.3749 28.588 27.1509 29.276C26.9349 29.956 26.7109 30.78 26.4789 31.748L26.7429 30.128C26.9989 29.248 27.2309 28.52 27.4389 27.944C27.6469 27.368 27.8549 26.912 28.0629 26.576C28.2789 26.232 28.5029 25.988 28.7349 25.844C28.9749 25.7 29.2469 25.628 29.5509 25.628C29.8629 25.628 30.1029 25.72 30.2709 25.904C30.4389 26.088 30.5229 26.32 30.5229 26.6C30.5229 26.824 30.4709 27.032 30.3669 27.224C30.2709 27.408 30.1349 27.56 29.9589 27.68C29.7909 27.792 29.5989 27.848 29.3829 27.848C29.1509 27.848 28.9709 27.788 28.8429 27.668C28.7149 27.54 28.6509 27.36 28.6509 27.128C28.6509 26.936 28.6949 26.76 28.7829 26.6C28.8709 26.432 28.9909 26.288 29.1429 26.168C29.2949 26.048 29.4629 25.968 29.6469 25.928C29.6229 25.92 29.5989 25.912 29.5749 25.904C29.5509 25.896 29.5229 25.892 29.4909 25.892ZM31.5915 29.396C31.9195 29.268 32.2315 29.124 32.5275 28.964C32.8235 28.804 33.0755 28.628 33.2835 28.436C33.5955 28.156 33.8435 27.832 34.0275 27.464C34.2195 27.088 34.3155 26.684 34.3155 26.252C34.3155 26.092 34.2995 25.988 34.2675 25.94C34.2355 25.884 34.1875 25.856 34.1235 25.856C33.9475 25.856 33.7555 25.948 33.5475 26.132C33.3475 26.308 33.1475 26.548 32.9475 26.852C32.7475 27.148 32.5635 27.488 32.3955 27.872C32.2355 28.256 32.1035 28.656 31.9995 29.072C31.9035 29.488 31.8555 29.892 31.8555 30.284C31.8555 30.732 31.9395 31.04 32.1075 31.208C32.2835 31.368 32.5075 31.448 32.7795 31.448C32.9955 31.448 33.2635 31.376 33.5835 31.232C33.9035 31.088 34.2195 30.832 34.5315 30.464L34.7235 30.56C34.5555 30.824 34.3355 31.08 34.0635 31.328C33.7915 31.576 33.4755 31.78 33.1155 31.94C32.7555 32.092 32.3635 32.168 31.9395 32.168C31.5795 32.168 31.2555 32.104 30.9675 31.976C30.6875 31.848 30.4635 31.66 30.2955 31.412C30.1355 31.156 30.0555 30.844 30.0555 30.476C30.0555 30.052 30.1235 29.616 30.2595 29.168C30.4035 28.72 30.6035 28.288 30.8595 27.872C31.1155 27.448 31.4235 27.068 31.7835 26.732C32.1435 26.388 32.5435 26.12 32.9835 25.928C33.4235 25.728 33.8915 25.628 34.3875 25.628C34.7395 25.628 35.0355 25.708 35.2755 25.868C35.5155 26.02 35.6355 26.256 35.6355 26.576C35.6355 26.888 35.5475 27.18 35.3715 27.452C35.2035 27.724 34.9755 27.972 34.6875 28.196C34.3995 28.42 34.0755 28.62 33.7155 28.796C33.3635 28.972 32.9995 29.124 32.6235 29.252C32.2555 29.38 31.9075 29.48 31.5795 29.552L31.5915 29.396ZM35.6325 31.448C35.6325 31.128 35.7445 30.86 35.9685 30.644C36.2005 30.428 36.4765 30.32 36.7965 30.32C37.0525 30.32 37.2525 30.384 37.3965 30.512C37.5405 30.64 37.6125 30.82 37.6125 31.052C37.6125 31.244 37.5565 31.428 37.4445 31.604C37.3405 31.772 37.2005 31.908 37.0245 32.012C36.8485 32.116 36.6525 32.168 36.4365 32.168C36.1805 32.168 35.9805 32.104 35.8365 31.976C35.7005 31.848 35.6325 31.672 35.6325 31.448ZM40.7001 30.98C40.6441 31.188 40.6361 31.34 40.6761 31.436C40.7241 31.532 40.8001 31.58 40.9041 31.58C40.9921 31.58 41.1001 31.524 41.2281 31.412C41.3561 31.292 41.4881 31.032 41.6241 30.632L41.8401 30.056H42.0681L41.7681 30.932C41.6561 31.26 41.5121 31.512 41.3361 31.688C41.1601 31.864 40.9721 31.988 40.7721 32.06C40.5721 32.132 40.3721 32.168 40.1721 32.168C39.9081 32.168 39.6961 32.12 39.5361 32.024C39.3761 31.936 39.2561 31.808 39.1761 31.64C39.1041 31.464 39.0721 31.26 39.0801 31.028C39.0961 30.796 39.1441 30.54 39.2241 30.26L41.1081 23.996C41.1881 23.724 41.1801 23.524 41.0841 23.396C40.9881 23.268 40.7441 23.204 40.3521 23.204L40.4361 22.952C41.0121 22.944 41.5161 22.9 41.9481 22.82C42.3881 22.732 42.8121 22.612 43.2201 22.46L40.7001 30.98ZM46.2778 31.268L44.9938 32.72L44.0338 26.828C43.9938 26.612 43.9538 26.464 43.9138 26.384C43.8738 26.304 43.8098 26.264 43.7218 26.264C43.6418 26.264 43.5618 26.32 43.4818 26.432C43.4018 26.536 43.2938 26.776 43.1578 27.152L42.9418 27.74H42.7138L43.0138 26.864C43.1818 26.376 43.3938 26.048 43.6498 25.88C43.9058 25.712 44.1858 25.628 44.4898 25.628C44.8178 25.628 45.0818 25.72 45.2818 25.904C45.4818 26.08 45.6178 26.42 45.6898 26.924L46.2778 31.268ZM43.4098 33.668C43.7858 33.484 44.1738 33.232 44.5738 32.912C44.9738 32.6 45.3818 32.176 45.7978 31.64C46.2458 31.088 46.6378 30.492 46.9738 29.852C47.3098 29.204 47.5578 28.584 47.7178 27.992C47.5258 27.88 47.3418 27.748 47.1658 27.596C46.9978 27.436 46.8618 27.26 46.7578 27.068C46.6538 26.876 46.6058 26.668 46.6138 26.444C46.6138 26.188 46.6858 25.988 46.8298 25.844C46.9738 25.7 47.1698 25.628 47.4178 25.628C47.6978 25.628 47.8978 25.724 48.0178 25.916C48.1458 26.108 48.2098 26.376 48.2098 26.72C48.2098 27.096 48.1458 27.508 48.0178 27.956C47.8898 28.404 47.7138 28.868 47.4898 29.348C47.2658 29.82 47.0138 30.28 46.7338 30.728C46.4538 31.176 46.1578 31.584 45.8458 31.952C45.5978 32.264 45.3178 32.556 45.0058 32.828C44.7018 33.1 44.3778 33.344 44.0338 33.56C43.6978 33.776 43.3458 33.948 42.9778 34.076C42.8018 34.14 42.6418 34.184 42.4977 34.208C42.3537 34.24 42.2297 34.256 42.1257 34.256C41.8697 34.256 41.6697 34.196 41.5257 34.076C41.3737 33.964 41.2977 33.8 41.2977 33.584C41.2977 33.376 41.3777 33.2 41.5377 33.056C41.6897 32.912 41.8857 32.84 42.1257 32.84C42.3817 32.84 42.6138 32.912 42.8218 33.056C43.0378 33.208 43.2338 33.412 43.4098 33.668Z" fill="white"/>
</svg>
