<svg width="1865" height="912" viewBox="0 0 1865 912" fill="none" xmlns="http://www.w3.org/2000/svg">
<path d="M0.720703 8.45233C100.221 -6.04767 307.821 17.5523 342.221 227.952C385.221 490.952 553.221 582.952 702.221 623.452" stroke="#424448" stroke-opacity="0.25" stroke-width="10" stroke-dasharray="20 20"/>
<path d="M906.221 169C1060.58 169 1185.72 294.136 1185.72 448.5C1185.72 513.493 1163.54 573.303 1126.33 620.775L1302.2 796.646C1322.31 816.758 1322.31 849.366 1302.2 869.478C1282.09 889.589 1249.48 889.589 1229.37 869.478L1052.14 692.248C1051.03 691.143 1049.99 690.001 1049 688.825C1007.22 713.707 958.388 728 906.221 728C751.857 728 626.721 602.864 626.721 448.5C626.721 294.136 751.857 169 906.221 169ZM906.721 256C800.13 256 713.721 342.409 713.721 449C713.721 555.591 800.13 642 906.721 642C1013.31 642 1099.72 555.591 1099.72 449C1099.72 342.409 1013.31 256 906.721 256Z" fill="#C8D0E3"/>
<path d="M964.466 352.079C977.905 338.64 999.694 338.64 1013.13 352.079C1026.57 365.518 1026.57 387.307 1013.13 400.746L960.133 453.745L1013.13 506.744C1026.57 520.183 1026.57 541.973 1013.13 555.412C999.694 568.851 977.904 568.851 964.465 555.412L911.466 502.412L858.467 555.412C845.028 568.851 823.239 568.851 809.8 555.412C796.361 541.973 796.361 520.183 809.8 506.744L862.798 453.745L809.8 400.746C796.361 387.307 796.361 365.518 809.8 352.079C823.239 338.64 845.028 338.64 858.467 352.079L911.466 405.078L964.466 352.079Z" fill="#FFC6C6"/>
<ellipse cx="935.221" cy="884.5" rx="287.5" ry="27.5" fill="#9CA2B0" fill-opacity="0.29"/>
<path d="M1187.22 510C1329.05 475.667 1606.22 352.8 1580.22 136C1547.72 -135 940.721 193.5 1477.22 540C1607.22 606.8 1712.05 614.5 1748.22 610" stroke="#424448" stroke-opacity="0.25" stroke-width="10" stroke-dasharray="20 20"/>
<ellipse cx="1800.57" cy="600.952" rx="42.5916" ry="26" transform="rotate(-11.2647 1800.57 600.952)" fill="#C8D0E3"/>
<ellipse cx="1805.22" cy="561.534" rx="21.631" ry="39.7966" transform="rotate(-44.5572 1805.22 561.534)" fill="#D9D9D9" fill-opacity="0.25"/>
<ellipse cx="1812.93" cy="627.083" rx="21.631" ry="39.7966" transform="rotate(31.1442 1812.93 627.083)" fill="#D9D9D9" fill-opacity="0.25"/>
<circle cx="1848.34" cy="589.996" r="15" transform="rotate(-6.70583 1848.34 589.996)" fill="#424448"/>
</svg>
